<svg width="128" height="128" viewBox="0 0 128 128" fill="none" xmlns="http://www.w3.org/2000/svg">
<g filter="url(#filter0_d)">
<rect x="8" y="8" width="112" height="112" rx="16" fill="#F5F5F5"/>
<path d="M54.8722 56.8763V59.2577H46.8V63.2784H54.0371V65.5361H46.8V69.5876H55.1196V72H44.233V56.8763H54.8722ZM60.4246 60.6804C60.4246 61.3196 60.6617 61.7835 61.1359 62.0722C61.6102 62.4227 62.6205 62.7835 64.1669 63.1546C65.7957 63.5464 66.9813 64.0825 67.7236 64.7629C68.4865 65.4433 68.8679 66.4227 68.8679 67.701C68.8679 69.0412 68.3627 70.1237 67.3524 70.9485C66.3627 71.7732 65.0638 72.1856 63.4555 72.1856C61.1256 72.1856 59.0225 71.3608 57.1463 69.7113L58.7545 67.7938C60.3215 69.134 61.9091 69.8041 63.5174 69.8041C64.3215 69.8041 64.971 69.6289 65.4658 69.2784C65.9607 68.9072 66.2081 68.433 66.2081 67.8557C66.2081 67.2784 65.9813 66.8247 65.5277 66.4948C65.0947 66.1649 64.3112 65.866 63.1772 65.5979C61.2184 65.1443 59.8576 64.6082 59.0947 63.9897C58.2081 63.3093 57.7648 62.268 57.7648 60.866C57.7648 59.5052 58.2597 58.4433 59.2493 57.6804C60.239 56.8969 61.5071 56.5052 63.0535 56.5052C65.1359 56.5052 66.9194 57.1134 68.404 58.3299L67.0432 60.2474C66.5896 59.8351 65.9813 59.5052 65.2184 59.2577C64.4555 58.9897 63.703 58.8557 62.9607 58.8557C62.1978 58.8557 61.5792 59.0206 61.105 59.3505C60.6514 59.6598 60.4246 60.1031 60.4246 60.6804ZM83.2007 67.8247L84.8398 69.4948C83.2728 71.2887 81.3347 72.1856 79.0254 72.1856C76.7367 72.1856 74.8295 71.4536 73.3038 69.9897C71.7986 68.5052 71.046 66.6392 71.046 64.3918C71.046 62.1237 71.8192 60.2474 73.3656 58.7629C74.912 57.2577 76.8605 56.5052 79.211 56.5052C81.5202 56.5052 83.4687 57.3711 85.0563 59.1031L83.4481 60.866C82.7264 60.1649 82.046 59.6804 81.4068 59.4124C80.7677 59.1443 80.0151 59.0103 79.1491 59.0103C77.6027 59.0103 76.3038 59.5052 75.2522 60.4948C74.2213 61.4845 73.7058 62.7423 73.7058 64.268C73.7058 65.7732 74.2213 67.0515 75.2522 68.1031C76.2831 69.1546 77.5099 69.6804 78.9326 69.6804C79.7986 69.6804 80.5409 69.5361 81.1594 69.2474C81.7986 68.9588 82.479 68.4845 83.2007 67.8247Z" fill="black"/>
</g>
<defs>
<filter id="filter0_d" x="-4" y="0" width="136" height="136" filterUnits="userSpaceOnUse" color-interpolation-filters="sRGB">
<feFlood flood-opacity="0" result="BackgroundImageFix"/>
<feColorMatrix in="SourceAlpha" type="matrix" values="0 0 0 0 0 0 0 0 0 0 0 0 0 0 0 0 0 0 127 0"/>
<feOffset dy="4"/>
<feGaussianBlur stdDeviation="2"/>
<feColorMatrix type="matrix" values="0 0 0 0 0 0 0 0 0 0 0 0 0 0 0 0 0 0 0.25 0"/>
<feBlend mode="normal" in2="BackgroundImageFix" result="effect1_dropShadow"/>
<feBlend mode="normal" in="SourceGraphic" in2="effect1_dropShadow" result="shape"/>
</filter>
</defs>
</svg>
